<svg xmlns="http://www.w3.org/2000/svg" version="1.1" xmlns:xlink="http://www.w3.org/1999/xlink" xmlns:svgjs="http://svgjs.dev/svgjs" width="1440" height="725" preserveAspectRatio="none" viewBox="0 0 1440 725"><g mask="url(&quot;#SvgjsMask1119&quot;)" fill="none"><rect width="1440" height="725" x="0" y="0" fill="rgba(248, 241, 241, 1)"></rect><path d="M889 406L643 652" stroke-width="6" stroke="url(&quot;#SvgjsLinearGradient1120&quot;)" stroke-linecap="round" class="BottomLeft"></path><path d="M340 285L-3 628" stroke-width="10" stroke="url(&quot;#SvgjsLinearGradient1121&quot;)" stroke-linecap="round" class="TopRight"></path><path d="M869 516L1265 120" stroke-width="6" stroke="url(&quot;#SvgjsLinearGradient1122&quot;)" stroke-linecap="round" class="BottomLeft"></path><path d="M24 271L-388 683" stroke-width="8" stroke="url(&quot;#SvgjsLinearGradient1123&quot;)" stroke-linecap="round" class="TopRight"></path><path d="M1251 378L732 897" stroke-width="6" stroke="url(&quot;#SvgjsLinearGradient1124&quot;)" stroke-linecap="round" class="BottomLeft"></path><path d="M1229 535L1523 241" stroke-width="10" stroke="url(&quot;#SvgjsLinearGradient1122&quot;)" stroke-linecap="round" class="BottomLeft"></path><path d="M719 511L1211 19" stroke-width="10" stroke="url(&quot;#SvgjsLinearGradient1123&quot;)" stroke-linecap="round" class="TopRight"></path><path d="M1161 293L1516 -62" stroke-width="8" stroke="url(&quot;#SvgjsLinearGradient1121&quot;)" stroke-linecap="round" class="TopRight"></path><path d="M1396 89L1651 -166" stroke-width="8" stroke="url(&quot;#SvgjsLinearGradient1122&quot;)" stroke-linecap="round" class="BottomLeft"></path><path d="M10 25L-352 387" stroke-width="8" stroke="url(&quot;#SvgjsLinearGradient1120&quot;)" stroke-linecap="round" class="BottomLeft"></path><path d="M86 149L-143 378" stroke-width="8" stroke="url(&quot;#SvgjsLinearGradient1122&quot;)" stroke-linecap="round" class="BottomLeft"></path><path d="M1364 582L1057 889" stroke-width="6" stroke="url(&quot;#SvgjsLinearGradient1124&quot;)" stroke-linecap="round" class="BottomLeft"></path><path d="M1354 52L1634 -228" stroke-width="10" stroke="url(&quot;#SvgjsLinearGradient1123&quot;)" stroke-linecap="round" class="TopRight"></path><path d="M1095 86L871 310" stroke-width="10" stroke="url(&quot;#SvgjsLinearGradient1124&quot;)" stroke-linecap="round" class="BottomLeft"></path><path d="M800 304L386 718" stroke-width="10" stroke="url(&quot;#SvgjsLinearGradient1124&quot;)" stroke-linecap="round" class="BottomLeft"></path><path d="M289 664L-252 1205" stroke-width="8" stroke="url(&quot;#SvgjsLinearGradient1124&quot;)" stroke-linecap="round" class="BottomLeft"></path><path d="M1307 396L889 814" stroke-width="8" stroke="url(&quot;#SvgjsLinearGradient1120&quot;)" stroke-linecap="round" class="BottomLeft"></path><path d="M1003 353L787 569" stroke-width="6" stroke="url(&quot;#SvgjsLinearGradient1121&quot;)" stroke-linecap="round" class="TopRight"></path><path d="M233 660L-216 1109" stroke-width="10" stroke="url(&quot;#SvgjsLinearGradient1121&quot;)" stroke-linecap="round" class="TopRight"></path><path d="M372 469L69 772" stroke-width="10" stroke="url(&quot;#SvgjsLinearGradient1125&quot;)" stroke-linecap="round" class="TopRight"></path><path d="M180 409L515 74" stroke-width="10" stroke="url(&quot;#SvgjsLinearGradient1123&quot;)" stroke-linecap="round" class="TopRight"></path><path d="M266 331L553 44" stroke-width="10" stroke="url(&quot;#SvgjsLinearGradient1122&quot;)" stroke-linecap="round" class="BottomLeft"></path><path d="M1296 118L1025 389" stroke-width="6" stroke="url(&quot;#SvgjsLinearGradient1122&quot;)" stroke-linecap="round" class="BottomLeft"></path><path d="M539 518L54 1003" stroke-width="6" stroke="url(&quot;#SvgjsLinearGradient1120&quot;)" stroke-linecap="round" class="BottomLeft"></path><path d="M199 531L625 105" stroke-width="8" stroke="url(&quot;#SvgjsLinearGradient1120&quot;)" stroke-linecap="round" class="BottomLeft"></path><path d="M123 417L-311 851" stroke-width="6" stroke="url(&quot;#SvgjsLinearGradient1122&quot;)" stroke-linecap="round" class="BottomLeft"></path><path d="M680 294L1007 -33" stroke-width="6" stroke="url(&quot;#SvgjsLinearGradient1125&quot;)" stroke-linecap="round" class="TopRight"></path><path d="M551 633L80 1104" stroke-width="6" stroke="url(&quot;#SvgjsLinearGradient1124&quot;)" stroke-linecap="round" class="BottomLeft"></path><path d="M1145 488L835 798" stroke-width="10" stroke="url(&quot;#SvgjsLinearGradient1123&quot;)" stroke-linecap="round" class="TopRight"></path><path d="M27 285L290 22" stroke-width="8" stroke="url(&quot;#SvgjsLinearGradient1120&quot;)" stroke-linecap="round" class="BottomLeft"></path><path d="M1084 688L1277 495" stroke-width="10" stroke="url(&quot;#SvgjsLinearGradient1120&quot;)" stroke-linecap="round" class="BottomLeft"></path><path d="M568 211L53 726" stroke-width="6" stroke="url(&quot;#SvgjsLinearGradient1123&quot;)" stroke-linecap="round" class="TopRight"></path><path d="M255 106L-240 601" stroke-width="10" stroke="url(&quot;#SvgjsLinearGradient1125&quot;)" stroke-linecap="round" class="TopRight"></path><path d="M1277 48L919 406" stroke-width="6" stroke="url(&quot;#SvgjsLinearGradient1124&quot;)" stroke-linecap="round" class="BottomLeft"></path><path d="M1272 46L1643 -325" stroke-width="8" stroke="url(&quot;#SvgjsLinearGradient1125&quot;)" stroke-linecap="round" class="TopRight"></path><path d="M1433 588L1794 227" stroke-width="6" stroke="url(&quot;#SvgjsLinearGradient1124&quot;)" stroke-linecap="round" class="BottomLeft"></path><path d="M347 20L861 -494" stroke-width="6" stroke="url(&quot;#SvgjsLinearGradient1123&quot;)" stroke-linecap="round" class="TopRight"></path><path d="M1333 123L1692 -236" stroke-width="8" stroke="url(&quot;#SvgjsLinearGradient1125&quot;)" stroke-linecap="round" class="TopRight"></path><path d="M585 102L154 533" stroke-width="6" stroke="url(&quot;#SvgjsLinearGradient1122&quot;)" stroke-linecap="round" class="BottomLeft"></path><path d="M203 100L-125 428" stroke-width="8" stroke="url(&quot;#SvgjsLinearGradient1124&quot;)" stroke-linecap="round" class="BottomLeft"></path><path d="M749 381L947 183" stroke-width="8" stroke="url(&quot;#SvgjsLinearGradient1123&quot;)" stroke-linecap="round" class="TopRight"></path></g><defs><mask id="SvgjsMask1119"><rect width="1440" height="725" fill="#ffffff"></rect></mask><linearGradient x1="100%" y1="0%" x2="0%" y2="100%" id="SvgjsLinearGradient1120"><stop stop-color="rgba(229, 124, 35, 0)" offset="0"></stop><stop stop-color="rgba(229, 124, 35, 0.3137254901960784)" offset="1"></stop></linearGradient><linearGradient x1="0%" y1="100%" x2="100%" y2="0%" id="SvgjsLinearGradient1121"><stop stop-color="rgba(232, 170, 66, 0)" offset="0"></stop><stop stop-color="rgba(232, 170, 66, 0.4392156862745098)" offset="1"></stop></linearGradient><linearGradient x1="100%" y1="0%" x2="0%" y2="100%" id="SvgjsLinearGradient1122"><stop stop-color="rgba(232, 170, 66, 0)" offset="0"></stop><stop stop-color="rgba(232, 170, 66, 0.4392156862745098)" offset="1"></stop></linearGradient><linearGradient x1="0%" y1="100%" x2="100%" y2="0%" id="SvgjsLinearGradient1123"><stop stop-color="rgba(229, 124, 35, 0)" offset="0"></stop><stop stop-color="rgba(229, 124, 35, 0.3137254901960784)" offset="1"></stop></linearGradient><linearGradient x1="100%" y1="0%" x2="0%" y2="100%" id="SvgjsLinearGradient1124"><stop stop-color="rgba(2, 84, 100, 0)" offset="0"></stop><stop stop-color="rgba(2, 84, 100, 0.3137254901960784)" offset="1"></stop></linearGradient><linearGradient x1="0%" y1="100%" x2="100%" y2="0%" id="SvgjsLinearGradient1125"><stop stop-color="rgba(2, 84, 100, 0)" offset="0"></stop><stop stop-color="rgba(2, 84, 100, 0.3137254901960784)" offset="1"></stop></linearGradient></defs></svg>